<svg xmlns="http://www.w3.org/2000/svg" width="16" height="15" fill="none"><path fill="#000" d="M10.347.511c1.6-.498 2.773.3 3.413 1.096.533-.2 1.173-.398 1.813-.598 0 .797-.533 1.395-.853 1.594.747.2 1.28-.398 1.28-.398-.107.896-.96 1.693-1.493 1.892-.214 6.274-2.987 10.358-9.494 10.258h-.426c-.32 0-3.947-.398-4.587-1.793 2.133.2 3.627-.398 4.373-1.095-.853-.299-2.56-.399-2.773-2.789.32.2.533.299 1.173.2C1.6 8.08.32 7.382.427 5.391c.32.298.96.498 1.28.398-.64-.2-1.92-3.087-.854-4.581 1.707 1.693 3.52 3.386 6.72 3.485C7.787 2.603 8.64 1.21 10.347.511Z"/></svg>